<svg width="24" height="24" viewBox="0 0 24 24" fill="none" xmlns="http://www.w3.org/2000/svg">
<path d="M22.4999 21.1496H22.275V12.8996C22.275 12.0371 21.5624 11.3246 20.6624 11.3246H18.6374C17.775 11.3246 17.025 12.0371 17.025 12.8996V21.1496H14.6249V16.5371C14.6249 15.6746 13.9124 14.9246 13.0125 14.9246H10.9874C10.1249 14.9246 9.37495 15.6371 9.37495 16.5371V21.1496H6.93745V11.5871C6.93745 10.7246 6.22495 9.97461 5.32495 9.97461H3.29995C2.43745 9.97461 1.68745 10.6871 1.68745 11.5871V21.1496H1.49995C1.04995 21.1496 0.637451 21.5246 0.637451 22.0121C0.637451 22.4996 1.01245 22.8746 1.49995 22.8746H22.4999C22.9499 22.8746 23.3624 22.4996 23.3624 22.0121C23.3624 21.5246 22.9499 21.1496 22.4999 21.1496ZM3.41245 21.1496V11.6621H5.24995V21.1496H3.41245ZM11.0625 21.1496V16.6121H12.9V21.1496H11.0625ZM18.7499 21.1496V13.0121H20.5875V21.1496H18.7499Z" fill="#AEAEAE"/>
<path d="M4.0874 6.41211C4.6874 6.41211 5.2499 6.18711 5.6999 5.84961L9.4874 8.32461C9.4124 8.54961 9.3749 8.81211 9.3749 9.03711C9.3749 10.4996 10.5374 11.6621 11.9999 11.6621C13.4249 11.6621 14.5874 10.5371 14.6249 9.11211L17.8499 7.76211C18.3374 8.24961 18.9749 8.51211 19.6874 8.51211C21.1124 8.51211 22.3124 7.34961 22.3124 5.88711C22.3124 4.42461 21.1499 3.26211 19.6874 3.26211C18.2249 3.26211 17.0624 4.42461 17.0624 5.88711C17.0624 5.99961 17.0624 6.11211 17.0999 6.22461L14.0999 7.49961C13.6124 6.86211 12.8624 6.41211 11.9999 6.41211C11.4374 6.41211 10.8749 6.59961 10.4624 6.93711L6.6374 4.42461C6.6749 4.23711 6.7124 4.01211 6.7124 3.78711C6.7124 2.32461 5.5499 1.16211 4.0874 1.16211C2.6249 1.16211 1.4624 2.32461 1.4624 3.78711C1.4624 5.24961 2.6249 6.41211 4.0874 6.41211ZM19.6499 4.98711C20.1749 4.98711 20.5874 5.39961 20.5874 5.92461C20.5874 6.44961 20.1749 6.86211 19.6499 6.86211C19.1249 6.86211 18.7499 6.41211 18.7499 5.92461C18.7499 5.39961 19.1624 4.98711 19.6499 4.98711ZM12.9374 9.03711C12.9374 9.56211 12.5249 9.97461 11.9999 9.97461C11.4749 9.97461 11.0624 9.56211 11.0624 9.03711C11.0624 8.51211 11.4749 8.09961 11.9999 8.09961C12.5249 8.09961 12.9374 8.51211 12.9374 9.03711ZM4.0874 2.84961C4.6124 2.84961 5.0249 3.26211 5.0249 3.78711C5.0249 3.97461 4.9874 4.16211 4.8749 4.27461C4.7249 4.53711 4.4249 4.68711 4.0874 4.68711C3.5624 4.68711 3.1499 4.27461 3.1499 3.74961C3.1499 3.22461 3.5624 2.84961 4.0874 2.84961Z" fill="#AEAEAE"/>
</svg>
