<svg width="24" height="24" viewBox="0 0 24 24" fill="none" xmlns="http://www.w3.org/2000/svg">
<path d="M12.0374 7.35059C9.48745 7.35059 7.38745 9.45059 7.38745 12.0006C7.38745 14.5881 9.48745 16.6506 12.0374 16.6506C14.5875 16.6506 16.6875 14.5881 16.6875 12.0006C16.6875 9.45059 14.5875 7.35059 12.0374 7.35059ZM12.0374 15.0006C10.3874 15.0006 9.07495 13.6506 9.07495 12.0381C9.07495 10.3881 10.3874 9.07559 12.0374 9.07559C13.6874 9.07559 15 10.3881 15 12.0006C15 13.6506 13.65 15.0006 12.0374 15.0006Z" fill="#AEAEAE"/>
<path d="M22.7625 14.2877L20.6625 13.1252C20.7375 12.7127 20.775 12.3002 20.775 11.8877C20.775 11.4377 20.7375 11.0252 20.7 10.6127L22.8375 9.41269C23.325 9.1502 23.5125 8.55019 23.2875 8.0252L21.1125 4.3502C20.85 3.9002 20.25 3.7127 19.7625 3.9002L17.5125 5.1377C17.4 5.0627 17.2875 4.9502 17.2125 4.8752C16.8 4.5377 16.425 4.2002 15.825 3.9002C15.7875 3.9002 15.75 3.8627 15.75 3.7877V2.4377C15.75 1.4627 14.9625 0.637695 13.95 0.637695H10.0875C9.11248 0.637695 8.28748 1.4627 8.28748 2.4377V3.9002C8.28748 3.9377 8.24998 3.9752 8.21248 4.0127C7.64998 4.2752 7.23748 4.6502 6.78748 4.9877C6.71248 5.0627 6.59998 5.1377 6.52498 5.2127L4.53748 4.0877C3.78748 3.6752 3.14998 3.9377 2.88748 4.3877L0.824983 7.9502C0.712483 8.2502 0.674983 8.5502 0.749983 8.85019C0.824983 9.1502 1.01248 9.37519 1.27498 9.5252L3.37498 10.6502C3.29998 11.0252 3.29998 11.4377 3.29998 11.9252C3.29998 12.3377 3.33748 12.7502 3.37498 13.1627L1.19998 14.3627C0.712483 14.6252 0.524983 15.2252 0.749983 15.7502L2.92498 19.4252C3.18748 19.8752 3.74998 20.0627 4.27498 19.8752L6.52498 18.6377C6.63748 18.7127 6.71248 18.7877 6.82498 18.9002C7.23748 19.2752 7.64998 19.6127 8.24998 19.8752C8.28748 19.8752 8.32498 19.9127 8.32498 19.9877V21.6002C8.32498 22.5752 9.11248 23.4002 10.125 23.4002H13.95C14.925 23.4002 15.75 22.5752 15.75 21.6002V19.8752C15.75 19.8377 15.7875 19.8002 15.825 19.7627C16.3875 19.5002 16.7625 19.1627 17.2125 18.7877C17.325 18.7127 17.4 18.6377 17.5125 18.5252L19.5 19.6502C20.25 20.0627 20.85 19.8002 21.15 19.3502L23.25 15.7877C23.4 15.5252 23.4375 15.2252 23.3625 14.9627C23.2875 14.7002 23.025 14.4377 22.7625 14.2877ZM19.9125 18.0002L18.1125 16.9877C17.5875 16.6877 16.9875 16.7627 16.5375 17.1377C16.35 17.2877 16.2 17.4002 16.05 17.5502C15.675 17.8877 15.4125 18.1127 15.0375 18.2627C14.4375 18.5627 14.025 19.2002 14.025 19.8752V21.5252C14.025 21.6002 13.9875 21.6377 13.9125 21.6377H10.0875C10.0125 21.6377 9.97498 21.6002 9.97498 21.5252V19.9127C9.97498 19.2377 9.56248 18.6002 8.96248 18.3002C8.58748 18.1127 8.28748 17.8877 7.91248 17.5502C7.76248 17.4377 7.61248 17.2877 7.42498 17.1752C7.16248 16.9877 6.86248 16.8752 6.52498 16.8752C6.29998 16.8752 6.03748 16.9502 5.81248 17.0627L4.01248 18.0752L2.51248 15.5252L4.27498 14.5502C4.79998 14.2502 5.09998 13.6877 5.02498 13.0502C4.98748 12.6752 4.94998 12.3002 4.94998 11.9252C4.94998 11.5127 4.98748 11.1377 5.02498 10.8377C5.13748 10.2002 4.83748 9.5627 4.27498 9.2627L2.62498 8.3252L4.08748 5.8127L5.88748 6.8252C6.41248 7.1252 7.01248 7.05019 7.46248 6.67519C7.61248 6.56269 7.76248 6.41269 7.91248 6.3002C8.28748 5.9627 8.58748 5.7377 8.96248 5.5502C9.59998 5.2502 9.97498 4.6127 9.97498 3.9377V2.4752C9.97498 2.4002 10.0125 2.3627 10.0875 2.3627H13.9125C13.9875 2.3627 14.025 2.4002 14.025 2.4752V3.9002C14.025 4.5752 14.4375 5.2127 15.0375 5.5127C15.4125 5.7002 15.675 5.9252 16.05 6.2252C16.2 6.3752 16.35 6.4877 16.5375 6.6377C16.9875 7.0127 17.625 7.0502 18.1125 6.7502L19.9125 5.7377L21.4125 8.28769L19.6875 9.2627C19.1625 9.5627 18.8625 10.2002 18.975 10.8377C19.0125 11.1752 19.05 11.5502 19.05 11.9252C19.05 12.3002 19.0125 12.6752 18.9375 13.0502C18.825 13.6877 19.125 14.2877 19.6875 14.5877L21.375 15.5252L19.9125 18.0002Z" fill="#AEAEAE"/>
</svg>
