<svg width="20" height="20" viewBox="0 0 20 20" fill="none" xmlns="http://www.w3.org/2000/svg">
<g clip-path="url(#clip0_798_7784)">
<path d="M10.875 5.1875C9.375 3.6875 6.96875 3.6875 5.46875 5.1875C4.75 5.90625 4.34375 6.875 4.34375 7.875C4.34375 8.875 4.75 9.84375 5.46875 10.5625C6.1875 11.2812 7.15625 11.6875 8.15625 11.6875C9.15625 11.6875 10.125 11.2812 10.8438 10.5625C12.375 9.125 12.375 6.6875 10.875 5.1875ZM9.875 9.59375C9.40625 10.0625 8.8125 10.3125 8.15625 10.3125C7.5 10.3125 6.90625 10.0625 6.4375 9.59375C5.96875 9.125 5.71875 8.53125 5.71875 7.875C5.71875 7.21875 5.96875 6.625 6.4375 6.15625C6.90625 5.6875 7.53125 5.4375 8.15625 5.4375C8.78125 5.4375 9.40625 5.6875 9.875 6.15625C10.8125 7.125 10.8125 8.65625 9.875 9.59375Z" fill="#1C2434"/>
<path d="M18.9687 18.25L13.6562 12.7812C16.2187 9.90625 16.1562 5.46875 13.375 2.6875C10.5 -0.1875 5.84375 -0.1875 2.96875 2.6875C0.09375 5.5625 0.09375 10.2187 2.96875 13.0937C4.40625 14.5312 6.28125 15.25 8.15625 15.25C9.71875 15.25 11.2812 14.75 12.5937 13.75L17.9375 19.25C18.0625 19.4062 18.25 19.4687 18.4375 19.4687C18.625 19.4687 18.7812 19.4062 18.9375 19.2812C19.25 18.9687 19.25 18.5312 18.9687 18.25ZM3.96875 12.0937C1.65625 9.78125 1.65625 6 3.96875 3.6875C5.125 2.53125 6.65625 1.9375 8.1875 1.9375C9.71875 1.9375 11.2188 2.53125 12.4062 3.6875C14.7187 6 14.7187 9.78125 12.4062 12.0937C10.0625 14.4375 6.28125 14.4375 3.96875 12.0937Z" fill="#666666"/>
</g>
<defs>
<clipPath id="clip0_798_7784">
<rect width="20" height="20" fill="white"/>
</clipPath>
</defs>
</svg>
