<svg width="28" height="28" viewBox="0 0 28 28" fill="none" xmlns="http://www.w3.org/2000/svg">
<path d="M13.6937 15.75C13.1687 15.75 12.6875 16.1875 12.6875 16.7562V21.3063C12.6875 21.8313 13.125 22.3125 13.6937 22.3125C14.2625 22.3125 14.7 21.875 14.7 21.3063V16.7562C14.7 16.1875 14.2625 15.75 13.6937 15.75Z" fill="black"/>
<path d="M21.4374 7.56914H20.2562V4.68164C20.2562 2.49414 18.5062 0.744141 16.3187 0.744141H11.6812C9.49365 0.744141 7.74365 2.49414 7.74365 4.68164V7.56914H6.5624C5.0749 7.56914 3.80615 8.79414 3.80615 10.3254V24.5004C3.80615 25.9879 5.03115 27.2566 6.5624 27.2566H21.4374C22.9249 27.2566 24.1937 26.0316 24.1937 24.5004V10.3254C24.1937 8.79414 22.9687 7.56914 21.4374 7.56914ZM9.7124 4.68164C9.7124 3.58789 10.5874 2.71289 11.6812 2.71289H16.3624C17.4562 2.71289 18.3312 3.58789 18.3312 4.68164V7.56914H9.7124V4.68164ZM22.2249 24.5004C22.2249 24.9379 21.8749 25.2879 21.4374 25.2879H6.5624C6.1249 25.2879 5.7749 24.9379 5.7749 24.5004V10.3254C5.7749 9.88789 6.1249 9.53789 6.5624 9.53789H21.4374C21.8749 9.53789 22.2249 9.88789 22.2249 10.3254V24.5004Z" fill="black"/>
</svg>
