<svg width="24" height="24" viewBox="0 0 24 24" fill="none" xmlns="http://www.w3.org/2000/svg">
<g clip-path="url(#clip0_1091_7756)">
<path d="M11.6625 12.5254C10.8375 12.6379 9.9375 12.7129 9.075 12.7129C4.725 12.7129 2.3625 11.4004 2.3625 10.8754V10.0504C3.975 10.9129 6.525 11.3629 9.075 11.3629C11.625 11.3629 14.175 10.9129 15.7875 10.0504V10.5379C15.7875 10.9879 16.1625 11.4004 16.65 11.4004C17.1375 11.4004 17.5125 11.0254 17.5125 10.5379V4.46289V4.42539C17.5125 2.10039 13.3125 0.900391 9.1125 0.900391C4.9875 0.900391 0.7875 2.10039 0.75 4.38789V4.42539V13.8754C0.75 16.2004 4.95 17.4379 9.1125 17.4379C9.825 17.4379 10.5375 17.4004 11.2125 17.3254C11.6625 17.2879 12 16.8754 11.9625 16.3879C11.925 15.9379 11.5125 15.6004 11.025 15.6379C10.425 15.7129 9.75 15.7504 9.1125 15.7504C4.875 15.7504 2.3625 14.4754 2.3625 13.8754V13.0504C3.975 13.9129 6.525 14.3629 9.075 14.3629C10.05 14.3629 10.9875 14.2879 11.925 14.1754C12.375 14.1004 12.7125 13.6879 12.6375 13.2379C12.5625 12.7879 12.1125 12.4879 11.6625 12.5254ZM9.0375 9.67539C4.6875 9.67539 2.325 8.36289 2.325 7.83789C2.325 7.83789 2.325 7.83789 2.325 7.80039V6.63789C3.9375 7.50039 6.4875 7.95039 9.0375 7.95039C11.5875 7.95039 14.1375 7.50039 15.75 6.63789V7.83789C15.7125 8.36289 13.3875 9.67539 9.0375 9.67539ZM9.0375 2.58789C13.3875 2.58789 15.7125 3.90039 15.75 4.42539C15.7125 4.95039 13.3875 6.26289 9.0375 6.26289C4.6875 6.26289 2.325 4.95039 2.325 4.42539C2.3625 3.90039 4.6875 2.58789 9.0375 2.58789Z" fill="#AEAEAE"/>
<path d="M18.1125 15.75C16.95 15.75 16.0125 16.6875 16.0125 17.85C16.0125 19.0125 16.95 19.95 18.1125 19.95C19.275 19.95 20.2125 19.0125 20.2125 17.85C20.175 16.6875 19.2375 15.75 18.1125 15.75ZM18.1125 18.2625C17.8875 18.2625 17.7 18.075 17.7 17.85C17.7 17.625 17.8875 17.4375 18.1125 17.4375C18.3375 17.4375 18.525 17.625 18.525 17.85C18.4875 18.075 18.3375 18.2625 18.1125 18.2625Z" fill="#AEAEAE"/>
<path d="M22.8375 18.375L22.2375 18.0375C22.2375 17.9625 22.2375 17.85 22.2375 17.775C22.2375 17.7 22.2375 17.5875 22.2375 17.5125L22.875 17.175C23.2875 16.95 23.4375 16.425 23.2875 15.975L22.35 14.3625C22.125 13.95 21.6 13.8 21.1875 13.9875L20.475 14.3625C20.4 14.2875 20.2875 14.2125 20.175 14.1375V13.8C20.175 13.125 19.6125 12.5625 18.9375 12.5625H17.325C16.65 12.5625 16.0875 13.125 16.0875 13.8V14.1375C15.975 14.2125 15.8625 14.2875 15.7875 14.3625L15.2625 14.0625C14.7 13.725 14.1375 13.9875 13.9125 14.3625L13.05 15.8625C12.9375 16.0875 12.9 16.35 12.9375 16.6125C13.0125 16.875 13.1625 17.0625 13.3875 17.175L13.9875 17.5125C13.9875 17.5875 13.9875 17.6625 13.9875 17.775C13.9875 17.85 13.9875 17.925 13.9875 18L13.35 18.375C12.9375 18.6 12.7875 19.125 12.9375 19.575L13.875 21.1875C14.1 21.5625 14.625 21.75 15.0375 21.5625L15.75 21.1875C15.825 21.2625 15.9375 21.3375 16.05 21.4125V21.825C16.05 22.5 16.6125 23.0625 17.2875 23.0625H18.9C19.575 23.0625 20.1375 22.5 20.1375 21.825V21.375C20.25 21.3 20.325 21.225 20.4375 21.15L20.9625 21.45C21.525 21.7875 22.0875 21.525 22.3125 21.15L23.2125 19.65C23.325 19.425 23.3625 19.1625 23.325 18.9C23.25 18.7125 23.0625 18.4875 22.8375 18.375ZM20.55 17.4375C20.55 17.55 20.5875 17.6625 20.5875 17.8125C20.5875 17.925 20.5875 18.075 20.55 18.1875C20.475 18.675 20.7 19.125 21.1125 19.35L21.375 19.5L21.2625 19.725L20.925 19.5375C20.55 19.3125 20.0625 19.35 19.725 19.65C19.65 19.725 19.575 19.7625 19.5 19.8375C19.35 19.95 19.275 20.025 19.2 20.0625C18.7875 20.2875 18.4875 20.7 18.4875 21.1875V21.45H17.775V21.225C17.775 20.7375 17.5125 20.325 17.0625 20.1C16.95 20.0625 16.875 19.9875 16.725 19.8375C16.65 19.8 16.575 19.725 16.5 19.65C16.1625 19.3875 15.675 19.35 15.3 19.5375L14.9625 19.725L14.8125 19.5L15.1125 19.35C15.525 19.125 15.7125 18.675 15.675 18.225C15.675 18.075 15.6375 17.9625 15.6375 17.8125C15.6375 17.6625 15.6375 17.55 15.675 17.4375C15.75 16.95 15.525 16.5 15.1125 16.275L14.8125 16.125L14.925 15.9L15.2625 16.0875C15.6375 16.3125 16.125 16.275 16.4625 15.975C16.5375 15.9 16.6125 15.8625 16.65 15.825C16.8 15.675 16.875 15.6375 16.9875 15.5625C17.4 15.3375 17.7 14.925 17.7 14.4375V14.25H18.4125V14.4C18.4125 14.8875 18.675 15.3 19.125 15.525C19.2 15.5625 19.275 15.6375 19.425 15.75C19.5 15.825 19.575 15.8625 19.65 15.9375C19.9875 16.2 20.475 16.2375 20.85 16.05L21.1875 15.8625L21.3 16.0875L21 16.2375C20.7 16.5 20.475 16.95 20.55 17.4375Z" fill="#AEAEAE"/>
</g>
<defs>
<clipPath id="clip0_1091_7756">
<rect width="24" height="24" fill="white"/>
</clipPath>
</defs>
</svg>
