<svg width="24" height="24" viewBox="0 0 24 24" fill="none" xmlns="http://www.w3.org/2000/svg">
<path d="M8.75847 21.3976H4.09638C3.73216 21.3976 3.44077 21.1062 3.44077 20.742V3.25912C3.44077 2.89489 3.73216 2.60351 4.09638 2.60351H12.3279V7.2656C12.3279 7.70267 12.6921 8.10332 13.1656 8.10332H17.7913V10.5436C17.7913 10.9807 18.1555 11.3814 18.629 11.3814C19.1025 11.3814 19.4667 11.0171 19.4667 10.5436V7.48414C19.4667 7.08349 19.2846 6.68284 18.9932 6.39146L13.8941 1.43799C13.6027 1.14661 13.202 1.00091 12.8014 1.00091H4.05996C2.82159 0.964492 1.80176 2.02075 1.80176 3.25912V20.742C1.80176 21.9803 2.82159 23.0366 4.09638 23.0366H8.7949C9.23197 23.0366 9.63262 22.6724 9.63262 22.1989C9.63262 21.7254 9.23197 21.3976 8.75847 21.3976ZM13.9305 3.76903L16.6622 6.4643H13.9305V3.76903Z" fill="#AEAEAE"/>
<path d="M21.9076 14.04C21.6163 13.7486 21.3249 13.4572 21.0335 13.1658C20.7785 12.9109 20.5236 12.6195 20.2322 12.3645C20.0865 12.1824 19.868 12.0367 19.613 12.0003C19.3216 11.9639 19.0303 12.0367 18.8117 12.2189L12.4742 18.52C12.2921 18.7021 12.1828 18.8842 12.11 19.1027L11.1994 21.8708L11.0537 22.3079L11.3087 22.6357C11.4179 22.7814 11.6365 22.9999 12.0371 22.9999H12.1828L15.0602 22.053C15.2787 21.9801 15.4973 21.8708 15.643 21.6887L21.9076 15.4605C22.0898 15.2784 22.199 15.0234 22.199 14.732C22.199 14.4771 22.0898 14.2221 21.9076 14.04ZM19.4673 13.8943C19.613 14.04 19.7587 14.1857 19.868 14.3314C20.0137 14.4771 20.1594 14.6227 20.3051 14.7684L19.9044 15.1691L19.0667 14.3314L19.4673 13.8943ZM14.5139 20.5232L13.2391 20.9239L13.6397 19.6491L17.8647 15.424L18.7025 16.2618L14.5139 20.5232Z" fill="#AEAEAE"/>
</svg>
