<svg width="24" height="24" viewBox="0 0 24 24" fill="none" xmlns="http://www.w3.org/2000/svg">
<path d="M21.0002 1.3877H3.0002C1.7252 1.3877 0.637695 2.4377 0.637695 3.7502V20.2877C0.637695 21.5627 1.6877 22.6502 3.0002 22.6502H21.0002C22.2752 22.6502 23.3627 21.6002 23.3627 20.2877V3.7127C23.3627 2.4377 22.2752 1.3877 21.0002 1.3877ZM21.6752 20.2877C21.6752 20.6627 21.3752 20.9627 21.0002 20.9627H3.0002C2.6252 20.9627 2.3252 20.6627 2.3252 20.2877V3.7127C2.3627 3.3752 2.6252 3.0752 3.0002 3.0752H21.0002C21.3752 3.0752 21.6752 3.3752 21.6752 3.7502V20.2877Z" fill="#AEAEAE"/>
<path d="M7.875 14.9256H7.8375V13.0506C7.8375 12.8256 7.7625 12.6381 7.6125 12.4881L7.05 11.8881L7.6125 11.2881C7.7625 11.1381 7.8375 10.9131 7.8375 10.7256V9.07559H7.875C8.325 9.07559 8.7375 8.70059 8.7375 8.21309C8.7375 7.72559 8.3625 7.35059 7.875 7.35059H6.975C6.525 7.35059 6.1125 7.72559 6.1125 8.21309V10.3881L5.2875 11.3256C4.9875 11.6631 4.9875 12.1506 5.2875 12.4506L6.1125 13.3881V15.7881C6.1125 16.2381 6.4875 16.6506 6.975 16.6506H7.875C8.325 16.6506 8.7375 16.2756 8.7375 15.7881C8.7375 15.3006 8.325 14.9256 7.875 14.9256Z" fill="#AEAEAE"/>
<path d="M17.8502 10.3881V8.21309C17.8502 7.76309 17.4752 7.35059 16.9877 7.35059H16.1252C15.6752 7.35059 15.2627 7.72559 15.2627 8.21309C15.2627 8.70059 15.6377 9.07559 16.1252 9.07559H16.1627V10.7256C16.1627 10.9506 16.2377 11.1381 16.3877 11.2881L16.9502 11.8881L16.3877 12.4881C16.2377 12.6381 16.1627 12.8631 16.1627 13.0506V14.9256H16.1252C15.6752 14.9256 15.2627 15.3006 15.2627 15.7881C15.2627 16.2756 15.6377 16.6506 16.1252 16.6506H17.0252C17.4752 16.6506 17.8877 16.2756 17.8877 15.7881V13.3881L18.7127 12.4506C19.0127 12.1131 19.0127 11.6256 18.7127 11.3256L17.8502 10.3881Z" fill="#AEAEAE"/>
</svg>
