<svg width="28" height="28" viewBox="0 0 28 28" fill="none" xmlns="http://www.w3.org/2000/svg">
<path d="M14 12.1191C17.2375 12.1191 19.8625 9.58164 19.8625 6.43164C19.8625 3.28164 17.2375 0.744141 14 0.744141C10.7625 0.744141 8.13745 3.28164 8.13745 6.43164C8.13745 9.58164 10.7625 12.1191 14 12.1191ZM14 2.75664C16.1437 2.75664 17.8937 4.41914 17.8937 6.47539C17.8937 8.53164 16.1437 10.1941 14 10.1941C11.8562 10.1941 10.1062 8.53164 10.1062 6.47539C10.1062 4.41914 11.8562 2.75664 14 2.75664Z" fill="black"/>
<path d="M16.8437 14.0879H11.1562C6.47495 14.0879 2.6687 17.9379 2.6687 22.6191V26.2504C2.6687 26.7754 3.1062 27.2566 3.67495 27.2566C4.2437 27.2566 4.6812 26.8191 4.6812 26.2504V22.6191C4.6812 19.0316 7.61245 16.0566 11.2437 16.0566H16.8875C20.475 16.0566 23.4499 18.9879 23.4499 22.6191V26.2504C23.4499 26.7754 23.8875 27.2566 24.4562 27.2566C25.025 27.2566 25.4625 26.8191 25.4625 26.2504V22.6191C25.3312 17.9379 21.525 14.0879 16.8437 14.0879Z" fill="black"/>
</svg>
