        <svg
          className="fill-current duration-300 ease-in-out"
          width="28"
          height="24"
          viewBox="0 0 28 24"
          fill="none"
          xmlns="http://www.w3.org/2000/svg"
        >
          <path
            d="M11.667 12C11.667 10.8954 12.5624 10 13.667 10C14.7716 10 15.667 10.8954 15.667 12C15.667 13.1046 14.7716 14 13.667 14C12.5624 14 11.667 13.1046 11.667 12Z"
            fill="#DADADA"
          />
          <path
            d="M11.667 5C11.667 3.89543 12.5624 3 13.667 3C14.7716 3 15.667 3.89543 15.667 5C15.667 6.10457 14.7716 7 13.667 7C12.5624 7 11.667 6.10457 11.667 5Z"
            fill="#DADADA"
          />
          <path
            d="M11.667 19C11.667 17.8954 12.5624 17 13.667 17C14.7716 17 15.667 17.8954 15.667 19C15.667 20.1046 14.7716 21 13.667 21C12.5624 21 11.667 20.1046 11.667 19Z"
            fill="#DADADA"
          />
        </svg>