<svg width="20" height="20" viewBox="0 0 20 20" fill="none" xmlns="http://www.w3.org/2000/svg">
<path d="M14.0833 12.0837V3.33366C14.0833 3.10449 13.8966 2.91699 13.6666 2.91699H8.66659V6.66699C8.66659 7.58699 7.91992 8.33366 6.99992 8.33366H3.24992V16.667C3.24992 16.8962 3.43659 17.0837 3.66659 17.0837H7.97175C8.09534 17.5381 8.29792 17.9599 8.56375 18.3337H3.66659C2.74659 18.3337 1.99992 17.587 1.99992 16.667V8.19033C1.99992 7.74866 2.17575 7.32449 2.48825 7.01199L3.466 6.03442C3.4715 6.02843 3.47725 6.02253 3.483 6.01672L7.52767 1.97209C7.723 1.77674 7.98792 1.66699 8.26425 1.66699H13.6666C14.5866 1.66699 15.3333 2.41366 15.3333 3.33366V12.1327C15.1297 12.1004 14.9209 12.0837 14.7083 12.0837H14.0833ZM7.41659 3.85116L4.18492 7.08366H6.99992C7.22992 7.08366 7.41659 6.89616 7.41659 6.66699V3.85116ZM11.7916 12.917C10.0657 12.917 8.66659 14.3161 8.66659 16.042C8.66659 17.7122 9.97692 19.0764 11.623 19.1627L11.7887 19.167V19.1708C12.1339 19.1724 12.415 18.8938 12.4166 18.5487C12.418 18.2322 12.1841 17.9697 11.8792 17.9269L11.7945 17.9208L11.7916 17.917C10.7561 17.917 9.91659 17.0775 9.91659 16.042C9.91659 15.0496 10.6876 14.2373 11.6632 14.1713L11.7916 14.167C12.1368 14.167 12.4166 13.8872 12.4166 13.542C12.4166 13.2256 12.1815 12.9641 11.8764 12.9227L11.7916 12.917ZM14.7083 12.917C14.3631 12.917 14.0833 13.1968 14.0833 13.542C14.0833 13.8584 14.3184 14.1199 14.6234 14.1613L14.7083 14.167C15.7438 14.167 16.5833 15.0065 16.5833 16.042C16.5833 17.0344 15.8123 17.8467 14.8366 17.9127L14.7083 17.917C14.3631 17.917 14.0833 18.1968 14.0833 18.542C14.0833 18.8584 14.3184 19.1199 14.6234 19.1613L14.7083 19.167C16.4341 19.167 17.8333 17.7679 17.8333 16.042C17.8333 14.3717 16.523 13.0076 14.8742 12.9213L14.7083 12.917ZM11.7916 15.417C11.4464 15.417 11.1666 15.6968 11.1666 16.042C11.1666 16.3584 11.4017 16.6199 11.7068 16.6613L11.7916 16.667H14.7083C15.0534 16.667 15.3333 16.3872 15.3333 16.042C15.3333 15.7256 15.0981 15.4641 14.7931 15.4227L14.7083 15.417H11.7916Z" fill="black"/>
</svg>
