<svg width="24" height="24" viewBox="0 0 24 24" fill="none" xmlns="http://www.w3.org/2000/svg">
<path d="M22.6124 16.3121C22.6124 16.2762 22.5749 16.2402 22.5749 16.2043L21.8249 15.0184C21.5999 14.659 21.1124 14.5152 20.6999 14.659C20.6624 14.659 20.6249 14.6949 20.5874 14.6949L20.1749 14.9105C20.1374 14.8746 20.0999 14.8746 20.0624 14.8387V14.659C20.0624 14.048 19.5374 13.5449 18.8999 13.5449H17.5874C16.9499 13.5449 16.4249 14.048 16.4249 14.659V14.8746C16.3874 14.9105 16.3499 14.9105 16.3124 14.9465L15.9749 14.7668C15.4124 14.4793 14.8874 14.6949 14.6624 15.0543L13.8749 16.2043C13.7624 16.4199 13.7249 16.6715 13.7999 16.8871C13.8749 17.1027 14.0249 17.3184 14.2499 17.4262L14.6624 17.6418C14.6624 17.6777 14.6624 17.7137 14.6624 17.7496C14.6624 17.7855 14.6624 17.8215 14.6624 17.8574L14.2124 18.109C13.7999 18.3246 13.6499 18.7918 13.8374 19.223C13.8374 19.259 13.8749 19.2949 13.8749 19.3309L14.6249 20.5168C14.8499 20.8762 15.3374 21.0199 15.7499 20.8762C15.7874 20.8762 15.8249 20.8402 15.8624 20.8402L16.2749 20.6246C16.3124 20.6605 16.3499 20.6965 16.3874 20.6965V20.948C16.3874 21.559 16.9124 22.0621 17.5499 22.0621H18.8624C19.4999 22.0621 20.0249 21.559 20.0249 20.948V20.6965C20.0624 20.6605 20.0999 20.6605 20.1374 20.6246L20.4749 20.8043C21.0374 21.0918 21.5624 20.8762 21.7874 20.5168L22.4999 19.3309C22.6124 19.1152 22.6499 18.8637 22.6124 18.648C22.5374 18.4324 22.3874 18.2168 22.1624 18.109L21.7499 17.8934C21.7499 17.8574 21.7499 17.8215 21.7499 17.7855C21.7499 17.7496 21.7499 17.7137 21.7499 17.6777L22.1999 17.4621C22.6124 17.1746 22.7624 16.7074 22.6124 16.3121ZM20.0624 17.498C20.0624 17.5699 20.0999 17.6777 20.0999 17.7855C20.0999 17.8934 20.0999 17.9652 20.0624 18.073C20.0249 18.3965 20.0999 18.684 20.3249 18.8996C20.0249 18.8277 19.6874 18.8996 19.4249 19.1152C19.3499 19.1512 19.3124 19.223 19.2374 19.259C19.1249 19.3668 19.0874 19.4027 19.0124 19.4387C18.5999 19.6184 18.3374 20.0137 18.3374 20.4449V20.5168H18.0749V20.4809C18.0749 20.0496 17.8124 19.6543 17.3999 19.4746C17.3249 19.4387 17.2874 19.4027 17.1749 19.2949C17.1374 19.259 17.0624 19.1871 16.9874 19.1512C16.7249 18.9715 16.3874 18.8996 16.0874 18.9715C16.3124 18.7559 16.3874 18.4684 16.3499 18.1449C16.3499 18.0371 16.3124 17.9293 16.3124 17.8215C16.3124 17.7137 16.3124 17.6418 16.3499 17.534C16.3874 17.2105 16.3124 16.923 16.0874 16.6715C16.3874 16.7434 16.7249 16.6715 16.9874 16.4559C17.0624 16.4199 17.0999 16.348 17.1374 16.3121C17.2499 16.2043 17.3249 16.1684 17.3624 16.1324C17.7749 15.9527 18.0374 15.5574 18.0374 15.1262H18.2999C18.2999 15.5574 18.5624 15.9168 18.9749 16.0965C19.0499 16.1324 19.0874 16.1684 19.1999 16.2762C19.2749 16.3121 19.3124 16.384 19.3874 16.4199C19.6499 16.6355 19.9874 16.6715 20.2874 16.5996C20.0999 16.8512 20.0249 17.1746 20.0624 17.498Z" fill="#AEAEAE"/>
<path d="M23.3624 4.16562C23.3624 2.94375 22.275 1.9375 20.9999 1.9375H2.99995C1.72495 1.9375 0.637451 2.94375 0.637451 4.20156V8.65781C0.637451 9.19688 0.824951 9.7 1.16245 10.0953C0.824951 10.4906 0.637451 10.9578 0.637451 11.4969V16.0609C0.637451 17.2828 1.64995 18.2531 2.92495 18.2531H11.25C11.7 18.2531 12.1124 17.8937 12.1124 17.4266C12.1124 16.9594 11.7374 16.6 11.25 16.6H2.96245C2.62495 16.6 2.36245 16.3484 2.36245 16.025V11.4609C2.36245 11.1375 2.62495 10.8859 2.96245 10.8859H2.99995H20.9999H21.0374C21.3749 10.8859 21.6374 11.1375 21.6374 11.4609V13.2578C21.6374 13.6891 22.0124 14.0844 22.4999 14.0844C22.9874 14.0844 23.3624 13.725 23.3624 13.2578V11.4609C23.3624 10.9219 23.1749 10.4547 22.8375 10.0594C23.1749 9.66406 23.3624 9.16094 23.3624 8.62188V4.16562ZM2.99995 9.26875C2.62495 9.26875 2.32495 8.98125 2.32495 8.62188V4.16562C2.32495 3.80625 2.62495 3.51875 2.99995 3.51875H20.9999C21.3749 3.51875 21.6749 3.80625 21.6749 4.16562V8.62188C21.6749 8.98125 21.3749 9.26875 20.9999 9.26875H2.99995Z" fill="#AEAEAE"/>
<path d="M6.03755 5.53125C5.58755 5.53125 5.17505 5.89062 5.17505 6.35781V6.42969C5.17505 6.86094 5.55005 7.25625 6.03755 7.25625C6.52505 7.25625 6.90005 6.89688 6.90005 6.42969V6.35781C6.90005 5.89062 6.52505 5.53125 6.03755 5.53125Z" fill="#AEAEAE"/>
<path d="M18.7875 5.53125H16.35C15.9 5.53125 15.4875 5.89062 15.4875 6.35781C15.4875 6.825 15.8625 7.18438 16.35 7.18438H18.7875C19.2375 7.18438 19.65 6.825 19.65 6.35781C19.65 5.89062 19.275 5.53125 18.7875 5.53125Z" fill="#AEAEAE"/>
<path d="M5.2124 13.6527V13.7246C5.2124 14.1559 5.5874 14.5512 6.0749 14.5512C6.5624 14.5512 6.9374 14.1918 6.9374 13.7246V13.6527C6.9374 13.2215 6.5624 12.8262 6.0749 12.8262C5.5874 12.8262 5.2124 13.2215 5.2124 13.6527Z" fill="#AEAEAE"/>
<path d="M18.0375 16.9953C18 16.9953 17.925 17.0312 17.8875 17.0312C17.85 17.0672 17.775 17.0672 17.7375 17.1031C17.7 17.1391 17.6625 17.175 17.625 17.2109C17.475 17.3547 17.3625 17.5703 17.3625 17.7859C17.3625 18.0016 17.4375 18.2172 17.625 18.3609C17.6625 18.3969 17.7 18.4328 17.7375 18.4687C17.775 18.5047 17.85 18.5406 17.8875 18.5406C17.925 18.5766 18 18.5766 18.0375 18.5766C18.075 18.5766 18.15 18.5766 18.1875 18.5766C18.2625 18.5766 18.3 18.5766 18.3375 18.5766C18.375 18.5766 18.45 18.5406 18.4875 18.5406C18.525 18.5047 18.6 18.5047 18.6375 18.4687C18.675 18.4328 18.7125 18.3969 18.75 18.3609C18.9 18.2172 19.0125 18.0016 19.0125 17.7859C19.0125 17.5703 18.9375 17.3547 18.75 17.2109C18.6 17.0312 18.3 16.9594 18.0375 16.9953Z" fill="#AEAEAE"/>
</svg>
