<svg width="24" height="24" viewBox="0 0 24 24" fill="none" xmlns="http://www.w3.org/2000/svg">
<path d="M20.9999 2.77539H2.99995C1.72495 2.77539 0.637451 3.82539 0.637451 5.13789V13.6129C0.637451 14.8879 1.68745 15.9754 2.99995 15.9754H11.1749V19.5379H8.69995C8.24995 19.5379 7.83745 19.9129 7.83745 20.4004C7.83745 20.8879 8.21245 21.2629 8.69995 21.2629H15.3749C15.8249 21.2629 16.2374 20.8879 16.2374 20.4004C16.2374 19.9129 15.8624 19.5379 15.3749 19.5379H12.9V15.9754H20.9999C22.275 15.9754 23.3624 14.9254 23.3624 13.6129V5.13789C23.3624 3.82539 22.275 2.77539 20.9999 2.77539ZM21.6749 13.6129C21.6749 13.9879 21.3749 14.2879 20.9999 14.2879H2.99995C2.62495 14.2879 2.32495 13.9879 2.32495 13.6129V5.13789C2.32495 4.76289 2.62495 4.46289 2.99995 4.46289H20.9999C21.3749 4.46289 21.6749 4.76289 21.6749 5.13789V13.6129Z" fill="white"/>
<path d="M16.9124 6.60078C16.5749 6.26328 16.0499 6.26328 15.7124 6.60078C15.3749 6.93828 15.3749 7.46328 15.7124 7.80078L17.0999 9.18828L15.7499 10.5758C15.4124 10.9133 15.4124 11.4383 15.7499 11.7758C15.8999 11.9258 16.1249 12.0383 16.3499 12.0383C16.5749 12.0383 16.7999 11.9633 16.9499 11.7758L18.8249 9.90078C19.1999 9.52578 19.1999 8.92578 18.8249 8.55078L16.9124 6.60078Z" fill="white"/>
<path d="M6.86245 9.33828L8.21245 7.98828C8.54995 7.65078 8.54995 7.12578 8.21245 6.78828C7.87495 6.45078 7.34995 6.45078 7.01245 6.78828L5.13745 8.66328C4.76245 9.03828 4.76245 9.63828 5.13745 10.0133L7.04995 11.9258C7.19995 12.0758 7.42495 12.1883 7.64995 12.1883C7.87495 12.1883 8.09995 12.1133 8.24995 11.9258C8.58745 11.5883 8.58745 11.0633 8.24995 10.7258L6.86245 9.33828Z" fill="white"/>
<path d="M13.1625 6.41299C12.7125 6.22549 12.225 6.45049 12.075 6.90049L10.35 11.2505C10.1625 11.7005 10.3875 12.188 10.8375 12.338C10.95 12.3755 11.025 12.413 11.1375 12.413C11.475 12.413 11.775 12.2255 11.925 11.888L13.65 7.50049C13.8 7.08799 13.6125 6.56299 13.1625 6.41299Z" fill="white"/>
</svg>
