<svg width="12" height="12" viewBox="0 0 12 12" fill="none" xmlns="http://www.w3.org/2000/svg">
<circle cx="6" cy="6" r="6" fill="black"/>
<path d="M3.88308 4.06869L5.55264 5.73824L3.8792 7.41167C3.76108 7.5298 3.75101 7.73629 3.87868 7.86396C3.99653 7.98181 4.203 7.99141 4.33097 7.86344L6.0044 6.19001L7.67396 7.85956C7.79181 7.97741 7.99827 7.98701 8.12624 7.85904C8.25421 7.73107 8.25444 7.53442 8.12677 7.40675L6.45721 5.73719L8.1208 4.07361C8.23892 3.95548 8.24899 3.74899 8.12132 3.62132C8.00347 3.50347 7.797 3.49388 7.66903 3.62184L5.9956 5.29528L4.32604 3.62572C4.20819 3.50787 4.00173 3.49827 3.87376 3.62624C3.74579 3.75421 3.76523 3.95083 3.88308 4.06869Z" fill="white"/>
</svg>
